# AST/ASF file generated using VICON BodyLanguage
# -----------------------------------------------
:version 1.10
:name VICON
:units
  mass 1.0
  length 0.45
  angle deg
:documentation
   .ast/.asf automatically generated from VICON data using
   VICON BodyBuilder and BodyLanguage model FoxedUp or BRILLIANT.MOD
:root
   order TX TY TZ RX RY RZ
   axis XYZ
   position 0 0 0  
   orientation 0 0 0 
:bonedata
  begin
     id 1 
     name lhipjoint
     direction 0.567149 -0.783011 0.255413 
     length 2.28399 
     axis 0 0 0  XYZ
  end
  begin
     id 2 
     name lfemur
     direction 0.34202 -0.939693 0  
     length 7.34031  
     axis 0 0 20  XYZ
    dof rx ry rz
    limits (-160.0 20.0)
           (-70.0 70.0)
           (-60.0 70.0)
  end
  begin
     id 3 
     name ltibia
     direction 0.34202 -0.939693 0   
     length 6.9833   
     axis 0 0 20   XYZ
    dof rx
    limits (-10.0 170.0)
  end
  begin
     id 4 
     name lfoot
     direction 0.136498 -0.375025 0.91691   
     length 2.33665   
     axis -90 7.62852e-016 20   XYZ
    dof rx rz
    limits (-45.0 90.0)
           (-70.0 20.0)
  end
  begin
     id 5 
     name ltoes
     direction 1.5367e-011 -4.21617e-011 1   
     length 1.15039   
     axis -90 7.62852e-016 20   XYZ
    dof rx
    limits (-90.0 20.0)
  end
  begin
     id 6 
     name rhipjoint
     direction -0.602854 -0.758518 0.247423   
     length 2.35775  
     axis 0 0 0  XYZ 
  end
  begin
     id 7 
     name rfemur
     direction -0.34202 -0.939693 0   
     length 7.43932   
     axis 0 0 -20   XYZ
    dof rx ry rz
    limits (-160.0 20.0)
           (-70.0 70.0)
           (-70.0 60.0)
  end
  begin
     id 8 
     name rtibia
     direction -0.34202 -0.939693 0   
     length 7.11893   
     axis 0 0 -20   XYZ
    dof rx
    limits (-10.0 170.0)
 end
 begin
     id 9 
     name rfoot
     direction -0.131771 -0.362037 0.922803   
     length 2.53019  
     axis -90 -7.62852e-016 -20   XYZ
    dof rx rz
    limits (-45.0 90.0)
           (-20.0 70.0)
  end
  begin
     id 10 
     name rtoes
     direction -1.53733e-011 -4.21932e-011 1   
     length 1.24596   
     axis -90 -7.62852e-016 -20   XYZ
    dof rx
    limits (-90.0 20.0)
  end
  begin
     id 11 
     name lowerback
     direction 0.0235427 0.999023 -0.0374125   
     length 2.21768   
     axis 0 0 0   XYZ
    dof rx ry rz
    limits (-20.0 45.0)
           (-30.0 30.0)
           (-30.0 30.0)
  end
  begin
     id 12 
     name upperback
     direction 0.0302156 0.996818 -0.073759   
     length 2.20352   
     axis 0 0 0   XYZ
    dof rx ry rz
    limits (-20.0 45.0)
           (-30.0 30.0)
           (-30.0 30.0)
  end
  begin
     id 13 
     name thorax
     direction 0.0187169 0.998235 -0.0563532   
     length 2.22103   
     axis 0 0 0   XYZ
    dof rx ry rz
    limits (-20.0 45.0)
           (-30.0 30.0)
           (-30.0 30.0)
  end
  begin
     id 14 
     name lowerneck
     direction -0.119528 0.987423 0.103481   
     length 1.72948   
     axis 0 0 0   XYZ
    dof rx ry rz
    limits (-20.0 45.0)
           (-30.0 30.0)
           (-30.0 30.0)
  end
  begin
     id 15 
     name upperneck
     direction 0.248049 0.963095 -0.104496   
     length 1.74979   
     axis 0 0 0   XYZ
    dof rx ry rz
    limits (-20.0 45.0)
           (-30.0 30.0)
           (-30.0 30.0)
  end
  begin
     id 16
     name head
     direction 0.0903589 0.994284 -0.056876  
     length 1.78268  
     axis 0 0 0   XYZ
    dof rx ry rz
    limits (-20.0 45.0)
           (-30.0 30.0)
           (-30.0 30.0)
  end
  begin
     id 17 
     name lclavicle
     direction 0.946008 0.242039 -0.215608  
     length 3.80783  
     axis 0 0 0   XYZ
    dof ry rz
    limits (-20.0 10.0)
           (0.0 20.0)
  end
  begin
     id 18 
     name lhumerus
     direction 1 -4.48991e-011 -2.25695e-027   
     length 4.83125   
     axis 180 -30 -90   XYZ
    dof rx ry rz
    limits (-60.0 90.0)
           (-90.0 90.0)
           (-90.0 90.0)
  end
  begin
     id 19
     name lradius
     direction 0.999991 0.00366712 -0.00211721   
     length 3.00391   
     axis 180 -30 -90   XYZ
    dof rx
    limits (-10.0 170.0)
  end
  begin
     id 20
     name lwrist
     direction 0.999991 0.00393016 -0.00141978   
     length 1.50195   
     axis -1.00488e-014 90 90   XYZ
    dof ry
    limits (-180.0 0.0)
 end
  begin
     id 21 
     name lhand
     direction 1 -4.49123e-011 2.72098e-026   
     length 1.2717   
     axis -1.73687e-014 90 90   XYZ
    dof rx rz
    limits (-90.0 90.0)
           (-45.0 45.0)
  end
  begin
     id 22 
     name lfingers
     direction 1 -4.48678e-011 5.4479e-026   
     length 1.02528   
     axis -3.47372e-014 90 90   XYZ
    dof rx
    limits (0.0 90.0)
  end
  begin
     id 23
     name lthumb
     direction 0.707107 -6.34851e-011 0.707107   
     length 1.4721   
     axis -90 45 -1.62303e-014   XYZ
    dof rx rz
    limits (-45.0 45.0)
           (-45.0 45.0)
  end
  begin
     id 24 
     name rclavicle
     direction -0.981723 0.189447 -0.0181673   
     length 3.74989  
     axis 0 0 0   XYZ 
    dof ry rz
    limits (-10.0 20.0)
           (-20.0 0.0)
  end
  begin
     id 25 
     name rhumerus
     direction -1 -4.48985e-011 2.38206e-027  
     length 4.61118   
     axis 180 30 90   XYZ
    dof rx ry rz
    limits (-90.0 60.0)
           (-90.0 90.0)
           (-90.0 90.0)
  end
  begin
     id 26 
     name rradius
     direction -1 -4.48977e-011 7.41019e-027   
     length 2.91491   
     axis 180 30 90   XYZ
    dof rx
    limits (-10.0 170.0)
  end
  begin
     id 27 
     name rwrist
     direction -1 -4.48549e-011 1.3624e-026   
     length 1.45745   
     axis -1.00488e-014 -90 -90   XYZ
    dof ry
    limits (-180.0 0.0)
  end
  begin
     id 28
     name rhand
     direction -1 -4.49107e-011 2.72109e-026   
     length 1.30769   
     axis -1.73687e-014 -90 -90   XYZ
    dof rx rz
    limits (-90.0 90.0)
           (-45.0 45.0)
  end
  begin
     id 29
     name rfingers
     direction -1 -4.48919e-011 5.44468e-026   
     length 1.05429   
     axis -3.47372e-014 -90 -90   XYZ
    dof rx
    limits (0.0 90.0)
  end
  begin
     id 30
     name rthumb
     direction -0.707107 -6.35315e-011 0.707107   
     length 1.51376   
     axis -90 -45 1.62303e-014   XYZ
    dof rx rz
    limits (-45.0 45.0)
           (-45.0 45.0)
  end
:hierarchy
  begin
    root lhipjoint rhipjoint lowerback
    lhipjoint lfemur
    lfemur ltibia
    ltibia lfoot
    lfoot ltoes
    rhipjoint rfemur
    rfemur rtibia
    rtibia rfoot
    rfoot rtoes
    lowerback upperback
    upperback thorax
    thorax lowerneck lclavicle rclavicle
    lowerneck upperneck
    upperneck head
    lclavicle lhumerus
    lhumerus lradius
    lradius lwrist
    lwrist lhand lthumb
    lhand lfingers
    rclavicle rhumerus
    rhumerus rradius
    rradius rwrist
    rwrist rhand rthumb
    rhand rfingers
  end

#!OML:ASF X:\für Bonn\!DataBase\2005_08_11_Bastian_Final\c3d\Bastian.ASF
:FULLY-SPECIFIED
:DEGREES
1
root 0.397284 17.3919 24.0989 -909.539 -17.3685 -897.191
lowerback 8.85288 -1.38431 -0.121396
upperback 6.33728 -2.41005 -0.0260963
thorax 1.61028 -1.4498 0.208729
lowerneck -18.9801 -6.34156 -7.15633
upperneck 15.7943 -9.01381 10.1875
head 8.87695 -3.74153 3.4024
rclavicle 1.78906e-015 -3.97569e-015
rhumerus -39.8281 -4.13651 -87.3392
rradius 24.5375
rwrist -0.659836
rhand -7.72293 3.58021
rfingers 7.12502
rthumb 18.1754 -25.5906
lclavicle 1.78906e-015 -3.97569e-015
lhumerus -194.751 -181.942 249.995
lradius 10.7114
lwrist 6.70159
lhand -16.2584 -9.2743
lfingers 7.12502
lthumb 9.95085 20.4705
rfemur -6.94698 -2.76295 23.4267
rtibia 45.1443
rfoot -15.2886 -5.57681
rtoes -9.39084
lfemur 8.67403 6.96215 -12.0624
ltibia 17.7079
lfoot -10.0048 -6.53501
ltoes -13.3349
2
root 0.363985 17.3932 24.1073 -909.504 -16.9027 -897.148
lowerback 8.77737 -1.42422 -0.215008
upperback 6.30164 -2.46563 0.0125271
thorax 1.6201 -1.47958 0.302917
lowerneck -18.9445 -6.24438 -7.02203
upperneck 15.747 -8.90223 10.1264
head 8.83446 -3.69007 3.37645
rclavicle -4.57205e-015 1.07344e-014
rhumerus -39.9614 -4.45685 -87.2596
rradius 24.6189
rwrist -0.677078
rhand -7.64229 3.36519
rfingers 7.12502
rthumb 18.253 -25.7984
lclavicle -4.57205e-015 1.07344e-014
lhumerus -194.331 -182.112 250.266
lradius 9.87471
lwrist 7.06377
lhand -16.5834 -9.47416
lfingers 7.12502
lthumb 9.63728 20.2854
rfemur -6.93953 -3.26748 23.5734
rtibia 44.6701
rfoot -15.5762 -5.77332
rtoes -9.92392
lfemur 8.74823 7.02767 -12.1533
ltibia 17.6922
lfoot -10.1134 -6.14356
ltoes -13.0493
3
root 0.331648 17.3946 24.1147 -909.489 -16.4587 -897.085
lowerback 8.70093 -1.47027 -0.279901
upperback 6.276 -2.52847 0.0389937
thorax 1.63955 -1.51236 0.368615
lowerneck -18.9157 -6.14275 -6.84133
upperneck 15.7182 -8.80225 10.0693
head 8.79906 -3.64115 3.34236
rclavicle 3.93097e-014 -1.15295e-014
rhumerus -40.0982 -4.6277 -87.296
rradius 24.7288
rwrist -0.791211
rhand -7.60968 3.08787
rfingers 7.12502
rthumb 18.2844 -26.0728
lclavicle 3.93097e-014 -1.15295e-014
lhumerus -194.106 -182.231 250.391
lradius 9.41797
lwrist 7.27288
lhand -16.7035 -9.50963
lfingers 7.12502
lthumb 9.5214 20.2552
rfemur -6.89583 -3.7533 23.7349
rtibia 44.1733
rfoot -15.8513 -6.13698
rtoes -10.3811
lfemur 8.83624 7.03 -12.2349
ltibia 17.678
lfoot -10.2684 -5.71755
ltoes -12.8269
4
root 0.301259 17.3954 24.122 -909.456 -16.0168 -897.042
lowerback 8.61223 -1.5161 -0.376827
upperback 6.25442 -2.59338 0.079308
thorax 1.6722 -1.54761 0.465844
lowerneck -18.8469 -6.05771 -6.75717
upperneck 15.6312 -8.70563 10.0701
head 8.74478 -3.59575 3.34375
rclavicle 3.74212e-014 3.97569e-016
rhumerus -40.2001 -4.81545 -87.2821
rradius 24.8068
rwrist -0.776422
rhand -7.51021 2.79268
rfingers 7.12502
rthumb 18.3801 -26.359
lclavicle 3.74212e-014 3.97569e-016
lhumerus -193.927 -182.361 250.534
lradius 9.00943
lwrist 7.37136
lhand -16.789 -9.57102
lfingers 7.12502
lthumb 9.43897 20.1976
rfemur -6.86856 -4.20833 23.8768
rtibia 43.6745
rfoot -16.0737 -6.60879
rtoes -10.7437
lfemur 8.90264 7.02958 -12.3362
ltibia 17.6589
lfoot -10.384 -5.28034
ltoes -12.6053
5
root 0.272761 17.3953 24.1288 -909.441 -15.5996 -896.975
lowerback 8.53754 -1.55848 -0.462262
upperback 6.23137 -2.65312 0.135688
thorax 1.69624 -1.58029 0.573266
lowerneck -18.7755 -5.97768 -6.67016
upperneck 15.5605 -8.61259 10.0465
head 8.69457 -3.55376 3.33585
rclavicle 5.35725e-014 -1.86858e-014
rhumerus -40.3132 -4.94948 -87.2793
rradius 24.9045
rwrist -0.800623
rhand -7.45208 2.56737
rfingers 7.12502
rthumb 18.436 -26.579
lclavicle 5.35725e-014 -1.86858e-014
lhumerus -193.816 -182.469 250.701
lradius 8.69235
lwrist 7.28441
lhand -16.8363 -9.59533
lfingers 7.12502
lthumb 9.3933 20.1754
rfemur -6.82052 -4.64576 24.0492
rtibia 43.1688
rfoot -16.2277 -7.215
rtoes -10.7414
lfemur 8.97681 7.01168 -12.4028
ltibia 17.6449
lfoot -10.5275 -4.86427
ltoes -12.2432
6
root 0.246082 17.3962 24.1347 -909.433 -15.2063 -896.928
lowerback 8.47727 -1.61359 -0.578211
upperback 6.20576 -2.7315 0.177223
thorax 1.71096 -1.6229 0.684223
lowerneck -18.6741 -5.88377 -6.57223
upperneck 15.482 -8.51254 10.0514
head 8.63705 -3.50701 3.33717
rclavicle -1.13804e-014 -8.74653e-015
rhumerus -40.4311 -4.97614 -87.3536
rradius 24.9908
rwrist -0.842296
rhand -7.35927 2.37298
rfingers 7.12502
rthumb 18.5253 -26.7649
lclavicle -1.13804e-014 -8.74653e-015
lhumerus -193.78 -182.587 250.85
lradius 8.4392
lwrist 7.12354
lhand -16.893 -9.62701
lfingers 7.12502
lthumb 9.33858 20.1461
rfemur -6.74914 -5.04601 24.1961
rtibia 42.6663
rfoot -16.3575 -7.83512
rtoes -10.6033
lfemur 9.04681 7.00677 -12.4763
ltibia 17.6592
lfoot -10.6813 -4.49535
ltoes -12.0358
7
root 0.220287 17.3955 24.1409 -909.404 -14.81 -896.91
lowerback 8.379 -1.65847 -0.734701
upperback 6.19773 -2.80006 0.233169
thorax 1.76778 -1.66299 0.829645
lowerneck -18.5796 -5.80399 -6.5087
upperneck 15.3727 -8.41404 10.0472
head 8.57162 -3.46317 3.34051
rclavicle -1.75427e-014 7.95139e-016
rhumerus -40.4915 -4.91553 -87.4301
rradius 25.0165
rwrist -0.941638
rhand -7.38935 2.30772
rfingers 7.12502
rthumb 18.4963 -26.8329
lclavicle -1.75427e-014 7.95139e-016
lhumerus -193.745 -182.726 251.052
lradius 8.23609
lwrist 6.85243
lhand -16.9292 -9.60804
lfingers 7.12502
lthumb 9.30365 20.1667
rfemur -6.68902 -5.40803 24.3095
rtibia 42.1731
rfoot -16.4783 -8.44554
rtoes -10.298
lfemur 9.09586 7.02616 -12.5811
ltibia 17.6873
lfoot -10.8447 -4.11974
ltoes -11.8975
8
root 0.19581 17.3945 24.1457 -909.383 -14.4296 -896.869
lowerback 8.29154 -1.70403 -0.85435
upperback 6.18336 -2.86626 0.280305
thorax 1.81039 -1.70023 0.945736
lowerneck -18.4433 -5.73234 -6.45718
upperneck 15.2337 -8.33181 10.0797
head 8.49285 -3.42665 3.35627
rclavicle -7.05686e-015 8.34896e-015
rhumerus -40.54 -4.82393 -87.5296
rradius 25.0141
rwrist -1.03471
rhand -7.33553 2.34564
rfingers 7.12502
rthumb 18.5481 -26.7901
lclavicle -7.05686e-015 8.34896e-015
lhumerus -193.829 -182.817 251.2
lradius 8.27942
lwrist 6.55143
lhand -16.8958 -9.51634
lfingers 7.12502
lthumb 9.33591 20.2569
rfemur -6.62506 -5.74915 24.4436
rtibia 41.6862
rfoot -16.6108 -9.01453
rtoes -10.0589
lfemur 9.14374 7.07898 -12.6354
ltibia 17.7167
lfoot -10.984 -3.82146
ltoes -11.5931
9
root 0.172866 17.393 24.151 -909.373 -14.0567 -896.823
lowerback 8.20901 -1.73981 -0.956609
upperback 6.16786 -2.91793 0.315769
thorax 1.84771 -1.72931 1.03928
lowerneck -18.2684 -5.66391 -6.36694
upperneck 15.0773 -8.2639 10.1037
head 8.40095 -3.39755 3.36109
rclavicle 4.28381e-014 -1.27222e-014
rhumerus -40.5546 -4.86282 -87.5861
rradius 24.9001
rwrist -0.991636
rhand -7.33343 2.51339
rfingers 7.12502
rthumb 18.5501 -26.6221
lclavicle 4.28381e-014 -1.27222e-014
lhumerus -194.054 -182.847 251.294
lradius 8.59335
lwrist 6.24037
lhand -16.804 -9.33576
lfingers 7.12502
lthumb 9.42443 20.4335
rfemur -6.55813 -6.02957 24.5829
rtibia 41.2139
rfoot -16.7797 -9.48156
rtoes -9.44686
lfemur 9.18526 7.10701 -12.6854
ltibia 17.7627
lfoot -11.1333 -3.51192
ltoes -11.246
10
root 0.150034 17.3913 24.1565 -909.359 -13.714 -896.807
lowerback 8.14489 -1.78546 -1.08231
upperback 6.15323 -2.9849 0.358955
thorax 1.87816 -1.76726 1.15544
lowerneck -18.0935 -5.60082 -6.34032
upperneck 14.9066 -8.18363 10.1351
head 8.30629 -3.36496 3.38051
rclavicle 4.65653e-014 -1.74931e-014
rhumerus -40.5227 -4.93325 -87.5584
rradius 24.7377
rwrist -0.886314
rhand -7.32106 2.80019
rfingers 7.12502
rthumb 18.562 -26.3342
lclavicle 4.65653e-014 -1.74931e-014
lhumerus -194.262 -182.91 251.443
lradius 8.87989
lwrist 5.9263
lhand -16.6739 -9.17462
lfingers 7.12502
lthumb 9.54995 20.589
rfemur -6.5028 -6.28826 24.6751
rtibia 40.7532
rfoot -16.9571 -9.93993
rtoes -8.50889
lfemur 9.21477 7.16736 -12.7619
ltibia 17.8337
lfoot -11.3085 -3.23518
ltoes -11.2891
11
root 0.129072 17.3894 24.161 -909.35 -13.3727 -896.763
lowerback 8.08687 -1.81576 -1.16679
upperback 6.14493 -3.02962 0.391502
thorax 1.90888 -1.79293 1.23628
lowerneck -18.0072 -5.55755 -6.2816
upperneck 14.8097 -8.14756 10.1795
head 8.25543 -3.34695 3.39156
rclavicle -1.16289e-014 4.37326e-015
rhumerus -40.4674 -5.13937 -87.4933
rradius 24.5176
rwrist -0.610157
rhand -7.35804 3.16908
rfingers 7.12502
rthumb 18.5264 -25.9687
lclavicle -1.16289e-014 4.37326e-015
lhumerus -194.468 -182.911 251.577
lradius 9.25225
lwrist 5.71913
lhand -16.5182 -8.95417
lfingers 7.12502
lthumb 9.7002 20.8025
rfemur -6.4536 -6.47922 24.8071
rtibia 40.3121
rfoot -17.1198 -10.4515
rtoes -7.80148
lfemur 9.22726 7.22766 -12.796
ltibia 17.921
lfoot -11.4418 -2.98876
ltoes -10.9895
12
root 0.10926 17.3877 24.1655 -909.324 -13.0546 -896.74
lowerback 8.04591 -1.8457 -1.26281
upperback 6.12963 -3.07399 0.420744
thorax 1.92353 -1.81834 1.32108
lowerneck -17.9298 -5.52482 -6.24262
upperneck 14.6922 -8.11795 10.2292
head 8.20098 -3.33238 3.40648
rclavicle -9.59136e-015 8.34896e-015
rhumerus -40.3728 -5.41871 -87.3678
rradius 24.2667
rwrist -0.288389
rhand -7.34555 3.60576
rfingers 7.12502
rthumb 18.5385 -25.5309
lclavicle -9.59136e-015 8.34896e-015
lhumerus -194.678 -182.905 251.747
lradius 9.66713
lwrist 5.45942
lhand -16.2824 -8.75839
lfingers 7.12502
lthumb 9.92774 20.9875
rfemur -6.43069 -6.61918 24.9253
rtibia 39.8975
rfoot -17.2724 -10.9456
rtoes -6.87113
lfemur 9.21668 7.35506 -12.83
ltibia 18.0229
lfoot -11.5808 -2.81598
ltoes -10.8434
